<svg viewBox="0 0 3482.92 2187.222" fill-rule="evenodd" stroke-width="0" stroke-linejoin="round" ><defs class="ClipPathGroup"><clipPath id="a" clipPathUnits="userSpaceOnUse"><path d="M0 0h3810v3810H0z"/></clipPath></defs><g class="SlideGroup"><g class="Slide" clip-path="url(#a)" transform="translate(-162.54 -885.889)"><path class="BoundingBox" fill="none" d="M176 899h3458v2162H176z"/><path fill-opacity=".898" stroke="" stroke-opacity=".898" d="M2532 1826c-43-149-114-304-189-415-74-111-193-206-311-259-117-52-269-55-380-29-111 27-235 98-310 196-74 98-127 203-144 345-18 143 26 311 70 460 43 150 97 315 190 444 94 130 209 197 327 249 118 53 253 37 364 10s218-78 292-175c75-98 150-217 169-360 18-143-34-316-78-466zm901 693c-141 164-350 301-607 395-256 95-551 145-854 145s-604-50-872-145c-268-94-495-231-657-395-161-164-253-350-265-539-12-190 56-376 198-540 141-164 350-301 607-395 256-95 551-145 854-145s603 50 872 145c268 94 494 231 656 395s253 350 265 539c12 190-56 376-197 540z"/><path fill="none" stroke="#000" d="M2532 1826c-43-149-114-304-189-415-74-111-193-206-311-259-117-52-269-55-380-29-111 27-235 98-310 196-74 98-127 203-144 345-18 143 26 311 70 460 43 150 97 315 190 444 94 130 209 197 327 249 118 53 253 37 364 10s218-78 292-175c75-98 150-217 169-360 18-143-34-316-78-466z"/><path fill="none" d="M3433 2519c-141 164-350 301-607 395-256 95-551 145-854 145s-604-50-872-145c-268-94-495-231-657-395-161-164-253-350-265-539-12-190 56-376 198-540 141-164 350-301 607-395 256-95 551-145 854-145s603 50 872 145c268 94 494 231 656 395s253 350 265 539c12 190-56 376-197 540z"/></g></g></svg>