<svg viewBox="0 0 402.244 609.522"><path style="fill-rule:evenodd;stroke-width:5;stroke-linecap:round;stroke-linejoin:round" d="M453.654 512.437c25.098 17.621 47.474 41.212 62.641 68.072 13.797 30.342 24.555 63.962 19.637 97.673-3.126 26.779 26.627 19.408 25.662-1.862 16.306-48.252 2.962-103.28-29.777-141.53-33.729-46.829-83.16-82.097-106.04-136.47-15.258-32.923 21.13-53.285 44.923-26.675 24.732 24.117 49.907 50.141 58.181 84.928 9.229 23.966 11.078 49.87 8.853 75.199 13.219 33.997 30.634-12.133 30.463-28.976 7.831-44.298-8.676-90.222-37.721-123.71-32.97-44.7-80.17-78.97-102.37-131.23-6.03-8.49-9.33-24.37-22.41-23.57l-.006-.006c-27.693 12.634-18.245 57.254-19.335 86.185-1.19 107.52 3.58 210.59.663 318.09-.188 35.283-34.706 24.684-56.812 18.011-47.827-6.03-98.444 12.647-131.26 47.772-25.557 27.982-37.247 77.623-7.579 106.92 26.23 25.588 66.736 30.145 101.44 24.377 37.208-8.374 71.683-28.449 99.59-54.146 21.634-19.671 26-48.743 26.851-77.758.687-21.101-1.274-45.782 1.971-67.911 28.263 16.635 63.518 56.618 78.685 83.478 13.797 30.342 24.555 63.962 19.637 97.673-3.126 26.779 26.627 19.408 25.662-1.862 16.306-48.252 2.962-103.28-29.777-141.53-24.108-30.021-75.061-73.039-92.986-87.078.307-30.585-4.414-77.842 31.214-64.064z" transform="translate(-170.87 -221.312)"/></svg>