<svg viewBox="0 0 744.09 1052.4"><g transform="translate(-100 -234) scale(1.5 1.5)"><path stroke-linejoin="round" d="M407.69 223.84c-7.247.332-15.544 4.859-15.75 12.156-.452 129.79-2.225 259.57-4.438 389.34-2.39 17.098-7.718 34.867-26.875 28.812-39.21-14.91-85.23-10.4-121.63 10.35-37.084 16.471-67.22 55.289-65 97 .698 35.974 35.134 60.301 68.438 63.719 35.814 8.275 72.771-2.12 103.62-20.688 34.633-18.379 71.63-47.097 72.875-89.906 2.456-167.09 4.745-319.48-.562-483.28-.073-5.471-5.05-7.758-10.688-7.5zm-99.28 436.04c30.478-.002 56.713 13.001 67.312 36.562 16.152 35.904-10.092 82.712-58.594 104.53-48.502 21.819-100.91 10.404-117.06-25.5-16.152-35.904 10.092-82.712 58.594-104.53 16.672-7.5 33.785-11.062 49.75-11.062z" fill-rule="evenodd" stroke-linecap="round" stroke-width="5"/></g></svg>