<svg viewBox="0 0 744.09 1052.4"><g transform="translate(-300 -370) scale(1.8 1.7)"><path stroke-linejoin="round" d="M418.39 231.34c14.32 21.136 21.682 46.728 40.135 64.982 21.135 27.835 48.146 50.891 69.089 79.058 15.157 19.681 31.771 40.599 36.074 65.357 11.587 31.757 6.556 67.409-5.806 98.498-13.947 16.765-23.482-4.932-19.589-18.365.594-18.535.323-37.021-6.785-54.528-6.305-26.255-17.834-51.101-37.136-70.366-16.772-14.701-35.813-47.095-61.382-35.941-16.885 10.637-9.53 32.139-11.346 48.712-1.004 101.95-1.071 203.94-2.701 305.87-1.246 42.809-38.247 71.529-72.88 89.908-30.854 18.567-67.795 28.966-103.61 20.691-33.304-3.417-67.756-27.73-68.454-63.704-2.22-41.711 27.904-80.552 64.988-97.024 36.404-20.749 82.429-25.246 121.63-10.331 19.156 6.055 24.483-11.721 26.874-28.819 2.212-129.77 3.983-259.54 4.435-389.33.366-12.973 21.496-16.139 26.461-4.66z" fill-rule="evenodd" stroke-linecap="round" stroke-width="5"/></g></svg>