<svg viewBox="0 0 744.09 1052.4"><g transform="translate(-100 -300) scale(1.5 1.5)"><path stroke-linejoin="round" d="M418.39 231.34c5.307 163.8 3.01 316.18.553 483.27-1.246 42.809-38.247 71.529-72.88 89.908-30.854 18.567-67.795 28.966-103.61 20.691-33.304-3.417-67.756-27.73-68.454-63.704-2.22-41.711 27.904-80.552 64.988-97.024 36.404-20.749 82.43-25.246 121.63-10.331 19.156 6.055 24.483-11.721 26.874-28.819 2.213-129.77 3.983-259.54 4.436-389.33.366-12.973 26.294-17.166 26.46-4.66z" fill-rule="evenodd" stroke="#000" stroke-linecap="round" stroke-width="5.924"/></g></svg>